<?xml version="1.0" encoding="UTF-8" standalone="no"?>
<!DOCTYPE svg PUBLIC "-//W3C//DTD SVG 1.1//EN" "http://www.w3.org/Graphics/SVG/1.1/DTD/svg11.dtd">
<svg xmlns="http://www.w3.org/2000/svg" version="1.1" viewBox="0.00 0.00 414.00 413.00">
<g stroke-width="2.00" fill="none" stroke-linecap="butt">
<path stroke="#26c7da" vector-effect="non-scaling-stroke" d="
  M 209.08 26.05
  Q 212.67 27.31 216.87 26.90
  Q 217.88 26.81 221.67 28.24
  Q 222.34 28.50 221.65 28.69
  Q 220.51 29.01 219.35 28.87
  Q 218.95 28.83 218.68 29.13
  Q 218.41 29.46 217.99 29.38
  Q 217.10 29.22 217.33 30.10
  Q 218.85 35.86 221.19 41.23
  Q 222.52 44.26 223.60 47.45
  Q 224.70 50.71 226.07 53.74
  Q 226.52 54.74 227.18 56.81
  Q 227.64 58.23 228.38 59.87
  Q 230.87 65.40 232.92 72.99
  Q 234.74 79.72 239.19 90.07
  Q 239.34 90.41 239.25 90.77
  Q 239.04 91.61 240.48 93.21"
/>
<path stroke="#26b2e0" vector-effect="non-scaling-stroke" d="
  M 240.48 93.21
  L 213.92 89.27
  Q 213.47 89.20 213.55 88.76
  Q 213.58 88.59 213.73 88.51
  A 0.22 0.21 65.3 0 0 213.83 88.23
  Q 213.29 86.81 212.60 85.21
  Q 211.97 83.75 210.79 82.60
  Q 209.58 81.41 209.23 79.61
  C 208.97 78.31 208.20 77.39 207.30 76.47
  Q 206.26 75.42 205.94 73.96
  Q 205.46 71.73 204.70 69.49
  Q 204.37 68.51 204.10 67.48
  Q 203.62 65.64 202.47 64.26
  A 0.54 0.54 0.0 0 1 202.85 63.38
  Q 203.47 63.34 204.06 63.40
  Q 204.68 63.46 204.09 63.25
  Q 203.93 63.19 203.90 63.02
  Q 203.86 62.80 203.96 62.60
  Q 204.09 62.32 203.93 62.06
  Q 202.88 60.32 201.95 57.90
  Q 198.88 49.86 196.04 42.51
  Q 195.13 40.16 194.36 37.28
  Q 193.68 34.74 192.74 32.34
  Q 192.56 31.87 192.06 31.88
  Q 190.97 31.89 189.76 31.85
  Q 188.66 31.81 189.64 31.32
  Q 189.88 31.20 189.91 30.93
  Q 189.98 30.19 189.64 29.54
  Q 188.93 28.17 189.49 26.96
  Q 189.65 26.62 189.27 26.59
  L 175.35 25.60"
/>
<path stroke="#26e1d2" vector-effect="non-scaling-stroke" d="
  M 247.12 31.56
  Q 252.55 32.71 257.55 34.04
  Q 258.71 34.34 260.01 34.42
  C 262.61 34.57 264.87 35.56 267.23 36.32
  Q 268.94 36.88 270.87 37.08
  Q 272.80 37.27 274.60 37.87
  Q 274.62 37.87 274.63 37.88
  L 274.89 38.14
  A 0.87 0.87 0.0 0 0 275.42 38.39
  Q 279.04 38.70 282.38 39.21
  Q 283.69 39.41 285.00 40.02
  Q 286.32 40.64 287.66 41.23
  Q 287.74 41.26 287.77 41.35
  Q 287.82 41.47 287.87 41.59
  Q 288.09 42.14 287.50 42.14
  L 286.97 42.14
  Q 286.40 42.14 286.39 42.71
  C 286.35 44.56 286.15 46.10 287.08 47.87
  Q 288.22 50.03 289.22 53.05
  Q 291.86 60.97 295.02 68.16
  Q 296.73 72.05 298.05 75.88
  Q 299.39 79.79 300.94 83.65
  Q 302.18 86.72 303.17 89.97
  Q 304.35 93.84 305.37 96.18
  Q 306.47 98.71 307.57 101.17
  C 308.23 102.65 308.40 104.15 309.52 105.41
  Q 309.90 105.84 309.96 106.41
  Q 310.11 107.93 310.71 109.01"
/>
<path stroke="#26d4d6" vector-effect="non-scaling-stroke" d="
  M 310.71 109.01
  L 299.10 106.04"
/>
<path stroke="#26c7da" vector-effect="non-scaling-stroke" d="
  M 299.10 106.04
  Q 283.40 101.88 267.68 98.27
  Q 263.57 97.33 256.25 96.12
  Q 250.51 95.16 244.82 93.90"
/>
<path stroke="#26bbdd" vector-effect="non-scaling-stroke" d="
  M 240.48 93.21
  L 244.82 93.90"
/>
<path stroke="#26b2e0" vector-effect="non-scaling-stroke" d="
  M 244.82 93.90
  Q 244.94 94.83 244.79 95.38
  Q 244.77 95.45 244.72 95.50
  Q 244.59 95.62 244.45 95.60
  Q 243.86 95.49 244.33 95.85
  Q 244.51 95.99 244.66 96.15
  A 0.55 0.54 -50.7 0 1 244.72 96.83
  Q 244.47 97.22 244.67 97.65
  Q 244.92 98.18 245.50 98.11
  Q 245.56 98.10 245.59 98.15
  Q 246.14 98.90 245.18 98.97
  Q 244.69 99.00 244.46 99.38
  A 0.45 0.44 -61.3 0 0 244.64 100.02
  Q 245.59 100.48 245.85 101.46
  Q 246.17 102.72 247.13 103.53
  Q 247.38 103.73 247.29 104.04
  Q 246.88 105.38 248.00 106.34
  Q 248.40 106.68 248.43 107.20
  Q 248.61 109.54 250.17 111.32
  Q 250.37 111.54 250.32 111.83
  Q 250.28 112.04 250.06 112.13
  A 0.36 0.35 70.3 0 0 249.85 112.59
  Q 252.37 119.44 254.05 126.72
  Q 254.09 126.87 254.27 126.87
  Q 254.39 126.87 254.54 126.92
  Q 254.76 126.98 254.78 127.21
  C 254.94 128.91 255.74 130.51 255.92 132.29
  Q 256.17 134.62 257.45 136.24
  Q 257.65 136.49 257.40 136.68
  Q 257.29 136.77 257.19 136.86
  Q 256.82 137.20 257.08 137.64
  Q 258.12 139.29 257.24 140.75
  Q 256.99 141.16 257.34 141.49
  Q 257.46 141.60 257.61 141.65
  Q 258.10 141.79 258.23 142.28
  L 259.14 145.67
  Q 259.26 146.13 259.16 146.60
  Q 258.90 147.76 259.32 148.58
  Q 259.64 149.20 258.97 149.35
  Q 258.81 149.39 258.69 149.51
  Q 258.56 149.65 258.37 149.59
  Q 258.14 149.52 258.16 149.27
  Q 258.18 149.00 258.02 149.22
  Q 257.95 149.31 257.84 149.31
  Q 257.39 149.34 257.84 149.39
  Q 258.10 149.42 258.06 149.83
  A 0.33 0.32 -76.2 0 1 257.62 150.10
  Q 252.37 148.11 246.75 146.36
  Q 246.13 146.17 245.45 146.55"
/>
<path stroke="#26aae2" vector-effect="non-scaling-stroke" d="
  M 244.09 146.22
  Q 244.05 145.79 243.44 145.43
  Q 242.98 145.16 242.45 145.16
  C 240.84 145.15 239.26 145.16 237.81 144.29
  Q 235.98 143.19 234.46 142.83
  Q 230.16 141.80 226.38 140.66
  Q 221.23 139.11 218.28 138.46
  Q 210.42 136.73 202.49 135.31"
/>
<path stroke="#2697e8" vector-effect="non-scaling-stroke" d="
  M 202.49 135.31
  Q 203.24 135.41 203.64 135.30
  Q 204.27 135.13 203.81 134.66
  Q 203.23 134.07 203.58 133.39
  Q 203.79 132.99 204.24 133.03
  Q 204.40 133.05 204.49 133.17
  Q 205.06 133.85 204.88 132.98
  C 204.08 129.07 202.39 125.74 201.26 122.01
  Q 197.18 108.43 192.74 94.22
  Q 192.25 92.63 191.61 91.29
  Q 190.89 89.79 191.04 88.36
  Q 191.11 87.68 190.43 87.66
  Q 175.25 87.23 162.97 88.11
  Q 152.31 88.87 139.21 91.56
  A 0.49 0.48 -14.6 0 1 138.65 91.24
  Q 138.60 91.08 138.66 90.91
  Q 138.78 90.55 138.56 90.24
  Q 137.46 88.60 136.37 86.71
  Q 135.47 85.16 135.05 83.41
  Q 134.62 81.63 133.88 79.99
  Q 130.63 72.81 127.47 64.41
  Q 127.18 63.64 126.48 61.13
  Q 126.03 59.48 125.22 57.93
  Q 124.60 56.72 124.33 55.65
  Q 124.03 54.50 123.68 53.35
  Q 123.25 51.91 122.25 50.05
  Q 118.86 43.72 118.40 36.86"
/>
<path stroke="#26b2e0" vector-effect="non-scaling-stroke" d="
  M 121.78 35.33
  Q 122.73 35.99 123.40 35.67
  Q 124.09 35.33 124.13 35.32
  Q 129.51 33.94 134.88 31.91"
/>
<path stroke="#26d8d5" vector-effect="non-scaling-stroke" d="
  M 300.48 165.82
  Q 304.67 166.30 309.03 168.08
  C 309.87 168.42 310.49 168.95 311.38 169.17
  Q 314.79 170.01 318.33 171.16"
/>
<path stroke="#26e5d1" vector-effect="non-scaling-stroke" d="
  M 318.33 171.16
  Q 325.73 171.98 333.22 171.39
  Q 335.71 171.19 337.92 170.57
  Q 340.35 169.88 342.72 169.49
  Q 346.17 168.91 349.61 167.33
  Q 356.05 164.38 360.79 160.86
  Q 364.42 158.17 368.21 154.63
  Q 370.50 152.50 372.17 150.20
  Q 373.26 148.71 374.31 147.19
  Q 377.13 143.10 380.03 136.76
  Q 380.13 136.52 380.39 136.56
  Q 380.82 136.64 380.65 136.23
  Q 380.33 135.44 380.80 134.74
  Q 381.25 134.06 380.45 134.18
  Q 379.41 134.33 378.52 133.82
  Q 375.11 131.86 371.47 130.37
  Q 361.86 126.45 352.78 122.79
  Q 343.66 119.10 334.03 115.94
  Q 324.35 112.77 315.00 109.88
  Q 313.78 109.50 310.71 109.01"
/>
<path stroke="#26cbd9" vector-effect="non-scaling-stroke" d="
  M 299.10 106.04
  L 299.56 110.67
  A 1.16 1.13 -38.5 0 1 299.50 111.14
  Q 299.29 111.73 299.33 112.40
  Q 299.34 112.64 299.49 112.81
  Q 299.59 112.94 299.76 112.78
  Q 299.85 112.68 299.89 112.81
  L 303.95 125.45
  A 0.62 0.62 0.0 0 1 303.27 126.25
  Q 302.95 126.20 302.75 126.45
  Q 302.39 126.90 302.97 126.90
  L 304.00 126.91
  Q 304.60 126.91 304.75 127.49
  Q 305.32 129.73 306.08 132.10
  Q 306.84 134.48 307.40 136.85
  Q 308.72 142.56 310.55 147.84
  Q 311.73 151.28 312.61 154.94
  Q 313.27 157.69 314.48 160.32
  Q 315.67 162.92 316.33 165.62
  Q 316.63 166.86 316.49 167.91
  Q 316.40 168.58 316.96 168.95
  Q 317.12 169.06 316.96 169.16
  Q 316.83 169.25 316.71 169.31
  Q 316.27 169.53 316.71 169.73
  Q 318.27 170.45 318.33 171.16"
/>
<path stroke="#269be6" vector-effect="non-scaling-stroke" d="
  M 231.92 189.80
  L 231.16 190.20
  Q 230.73 190.43 230.86 190.90
  Q 230.98 191.32 230.89 191.79
  Q 230.79 192.29 230.29 192.17
  Q 228.56 191.75 226.98 192.55
  Q 225.51 193.29 225.43 193.33
  Q 216.60 197.07 209.60 201.04
  Q 209.50 201.10 209.38 201.11
  Q 209.25 201.12 209.12 201.11
  A 0.67 0.02 -24.9 0 0 208.55 201.35
  L 183.55 213.29
  A 2.11 2.10 75.1 0 0 182.36 215.35
  L 184.07 238.19"
/>
<path stroke="#26a4e4" vector-effect="non-scaling-stroke" d="
  M 184.07 238.19
  L 179.59 239.63
  Q 179.11 239.78 178.87 240.22
  Q 178.58 240.74 177.99 240.80
  Q 177.45 240.85 176.98 241.12
  Q 175.34 242.06 173.80 243.11
  Q 172.24 244.18 170.57 244.98
  Q 166.52 246.94 162.53 248.91
  Q 160.42 249.95 159.34 251.48
  Q 158.06 253.29 156.23 254.16
  Q 153.92 255.26 151.90 256.79
  Q 151.49 257.10 150.98 257.12
  Q 150.10 257.16 150.10 258.08
  Q 150.10 258.52 149.73 258.78
  L 148.36 259.71
  Q 148.00 259.97 147.87 260.39
  Q 147.69 261.00 147.01 261.15
  Q 146.36 261.28 145.72 261.61
  Q 140.19 264.48 135.06 266.66
  Q 133.76 267.21 132.37 267.62
  Q 131.00 268.03 129.79 268.61
  Q 129.34 268.83 128.92 268.55
  Q 128.67 268.39 128.38 268.42
  Q 127.86 268.47 128.05 268.95
  Q 128.25 269.46 128.14 270.01
  Q 128.06 270.41 127.53 270.28"
/>
<path stroke="#269be6" vector-effect="non-scaling-stroke" d="
  M 202.49 135.31
  L 188.06 133.37"
/>
<path stroke="#26abe2" vector-effect="non-scaling-stroke" d="
  M 188.06 133.37
  Q 160.96 130.23 134.34 134.13"
/>
<path stroke="#266ef3" vector-effect="non-scaling-stroke" d="
  M 134.34 134.13
  Q 137.28 133.00 135.34 128.02
  Q 132.37 120.36 130.32 112.39
  Q 129.87 110.64 128.53 108.87
  Q 128.20 108.45 128.51 108.00
  Q 128.77 107.65 128.60 107.24
  Q 127.89 105.49 127.53 103.70
  Q 127.43 103.21 127.01 102.92
  Q 126.43 102.54 126.65 101.74
  A 1.22 1.21 26.9 0 0 126.23 100.47
  Q 125.82 100.14 125.68 99.65
  A 5.58 5.04 17.6 0 0 124.28 97.26
  Q 123.55 96.53 122.43 96.45
  Q 121.43 96.38 120.44 96.71
  Q 108.60 100.80 97.31 107.06"
/>
<path stroke="#267def" vector-effect="non-scaling-stroke" d="
  M 97.31 107.06
  Q 95.29 103.46 92.07 102.42
  Q 91.63 102.28 91.57 101.81
  Q 91.43 100.51 90.65 99.36
  Q 90.35 98.93 90.38 98.40
  Q 90.42 97.73 90.31 97.50
  Q 86.77 90.04 83.57 81.85
  Q 82.71 79.66 81.43 77.05
  Q 80.30 74.73 79.24 72.24
  C 78.53 70.55 78.07 68.16 77.00 66.31
  Q 76.17 64.89 74.68 64.86
  Q 74.26 64.85 74.17 64.45
  Q 74.01 63.78 74.20 63.15
  Q 74.32 62.72 74.09 62.35
  Q 73.60 61.54 73.74 59.77"
/>
<path stroke="#267def" vector-effect="non-scaling-stroke" d="
  M 230.91 255.51
  Q 229.96 255.12 230.12 254.00
  Q 230.25 253.13 229.98 252.37
  Q 229.79 251.87 229.79 252.41
  Q 229.78 252.56 229.63 252.64
  Q 229.45 252.73 229.28 252.64
  L 227.89 251.92
  Q 227.49 251.71 227.11 251.95
  Q 225.89 252.70 225.13 253.71
  Q 224.82 254.12 224.30 254.12
  L 223.43 254.12
  Q 222.78 254.12 222.86 254.77
  Q 223.08 256.51 221.30 256.69
  Q 221.20 256.70 221.17 256.60
  Q 221.13 256.48 221.05 256.37
  Q 221.00 256.31 220.93 256.33
  Q 219.78 256.70 218.40 256.38
  Q 217.62 256.20 217.62 257.00
  L 217.62 257.59
  Q 217.63 258.07 217.20 258.26
  Q 206.86 262.89 196.79 267.39
  Q 194.39 268.46 191.59 269.44
  Q 191.13 269.60 191.17 270.09
  Q 191.31 272.05 190.36 271.80"
/>
<path stroke="#2690ea" vector-effect="non-scaling-stroke" d="
  M 190.36 271.80
  Q 186.49 257.48 184.78 242.73
  Q 184.56 240.84 184.07 238.19"
/>
<path stroke="#2686ec" vector-effect="non-scaling-stroke" d="
  M 190.36 271.80
  Q 194.03 284.91 199.21 296.36
  Q 199.88 297.85 198.29 298.21
  Q 195.51 298.83 192.99 300.29
  Q 189.49 302.33 186.25 304.03
  Q 180.05 307.28 174.23 310.83
  Q 172.86 311.66 171.97 312.92
  Q 171.02 314.27 169.52 315.02
  Q 169.05 315.25 168.75 315.67
  Q 167.71 317.12 166.05 317.61
  Q 163.60 318.34 163.49 318.39
  Q 161.21 319.37 158.91 320.29
  C 156.94 321.08 154.88 320.99 153.07 322.26
  Q 152.70 322.51 152.25 322.46
  Q 151.60 322.39 150.95 322.40
  Q 150.88 322.40 150.82 322.43
  Q 150.77 322.45 150.73 322.49
  Q 150.47 322.70 150.80 322.64
  Q 151.47 322.52 151.96 322.93
  Q 152.64 323.49 151.76 323.51
  L 150.00 323.55"
/>
<path stroke="#26bfdc" vector-effect="non-scaling-stroke" d="
  M 188.06 133.37
  Q 188.43 134.71 188.13 135.26
  Q 187.33 136.76 187.09 138.36
  Q 186.41 143.09 186.13 148.54
  Q 185.85 154.17 185.14 159.62
  Q 183.40 173.06 182.88 186.44
  Q 182.86 186.99 182.50 187.40
  Q 181.51 188.55 180.02 188.62
  Q 179.50 188.65 179.06 188.93
  Q 172.76 193.00 165.72 196.33
  Q 163.14 197.55 160.97 198.87
  Q 158.59 200.32 156.20 201.72
  Q 155.54 202.11 155.08 202.69
  Q 154.78 203.07 154.31 203.16
  Q 152.76 203.45 151.32 204.20
  Q 149.97 204.91 148.56 205.59
  Q 146.53 206.58 144.65 207.59
  Q 140.59 209.78 136.38 211.67
  Q 134.50 212.52 132.28 213.18
  Q 130.20 213.79 128.39 214.98
  Q 127.96 215.26 127.46 215.31
  Q 126.07 215.47 124.88 216.20
  Q 124.51 216.43 124.74 216.79
  Q 124.98 217.17 124.54 217.18
  Q 124.28 217.20 124.03 217.00
  Q 123.88 216.87 123.93 216.68
  Q 123.97 216.54 123.88 216.43
  Q 123.74 216.25 123.62 216.46
  Q 123.56 216.58 123.44 216.67
  Q 123.23 216.85 123.18 216.58
  Q 123.12 216.29 123.14 216.00
  Q 123.16 215.75 123.02 215.96
  Q 122.95 216.07 122.84 215.98
  Q 122.51 215.72 122.58 216.14
  Q 122.70 216.82 122.06 217.03
  A 0.33 0.32 -8.1 0 1 121.63 216.71
  Q 121.65 216.33 121.33 216.16
  Q 120.61 215.79 120.67 216.60
  Q 120.78 218.26 120.08 218.78"
/>
<path stroke="#26e1d2" vector-effect="non-scaling-stroke" d="
  M 123.90 147.30
  Q 125.24 145.06 124.53 141.44"
/>
<path stroke="#26e1d2" vector-effect="non-scaling-stroke" d="
  M 124.53 138.05
  Q 125.95 138.07 125.52 135.89"
/>
<path stroke="#2664f6" vector-effect="non-scaling-stroke" d="
  M 97.31 107.06
  Q 59.90 127.23 41.11 165.83
  Q 40.95 166.15 40.35 166.02
  A 0.54 0.54 0.0 0 1 40.01 165.75
  L 37.61 160.93
  A 0.68 0.62 -87.3 0 0 37.42 160.70
  Q 36.55 160.02 36.80 158.93
  Q 36.84 158.75 36.67 158.68
  Q 36.53 158.62 36.39 158.62
  Q 36.05 158.63 35.91 158.32
  Q 33.20 152.27 30.13 145.96
  Q 28.38 142.34 26.25 135.20
  Q 25.74 133.49 24.22 131.88
  A 1.42 1.41 -69.5 0 1 23.86 131.08
  Q 23.72 129.91 22.30 129.66"
/>
<path stroke="#2692e9" vector-effect="non-scaling-stroke" d="
  M 134.34 134.13
  L 125.52 135.89"
/>
<path stroke="#26a4e4" vector-effect="non-scaling-stroke" d="
  M 125.52 135.89
  Q 123.96 135.96 123.75 136.47"
/>
<path stroke="#2664f6" vector-effect="non-scaling-stroke" d="
  M 245.16 305.02
  Q 244.56 305.35 244.10 305.08
  Q 243.79 304.90 243.96 304.58
  Q 244.04 304.42 244.03 304.24
  Q 244.01 303.73 243.63 304.07
  Q 241.10 306.42 238.72 307.33
  Q 232.74 309.63 226.80 311.98
  Q 224.89 312.74 223.42 313.64
  Q 221.75 314.65 220.06 315.52
  A 2.71 2.63 -82.8 0 0 219.26 316.16
  Q 218.48 317.10 217.25 316.99
  A 1.81 1.78 -56.3 0 0 216.23 317.20
  Q 214.65 318.07 212.96 318.30
  A 0.68 0.68 0.0 0 0 212.49 319.36
  Q 226.39 339.27 246.04 352.97
  C 252.24 357.29 258.98 360.80 265.68 364.10
  A 1.15 1.14 -46.2 0 1 265.72 366.13
  Q 259.57 369.50 253.41 373.38
  C 251.75 374.43 249.87 374.88 248.18 375.98
  Q 247.79 376.23 247.62 376.66
  Q 247.31 377.45 246.43 377.71
  Q 245.91 377.86 245.72 378.38
  L 245.06 380.20
  Q 244.90 380.63 244.44 380.71
  Q 240.05 381.40 236.53 384.37
  A 1.11 1.10 -62.1 0 1 235.73 384.62
  Q 234.01 384.48 233.18 385.97
  Q 233.10 386.12 232.93 386.11
  Q 232.80 386.11 232.70 385.99
  A 0.13 0.13 0.0 0 0 232.49 386.01
  L 231.41 388.21"
/>
</g>
<path fill="#26bedc" d="
  M 209.08 26.05
  Q 212.67 27.31 216.87 26.90
  Q 217.88 26.81 221.67 28.24
  Q 222.34 28.50 221.65 28.69
  Q 220.51 29.01 219.35 28.87
  Q 218.95 28.83 218.68 29.13
  Q 218.41 29.46 217.99 29.38
  Q 217.10 29.22 217.33 30.10
  Q 218.85 35.86 221.19 41.23
  Q 222.52 44.26 223.60 47.45
  Q 224.70 50.71 226.07 53.74
  Q 226.52 54.74 227.18 56.81
  Q 227.64 58.23 228.38 59.87
  Q 230.87 65.40 232.92 72.99
  Q 234.74 79.72 239.19 90.07
  Q 239.34 90.41 239.25 90.77
  Q 239.04 91.61 240.48 93.21
  L 213.92 89.27
  Q 213.47 89.20 213.55 88.76
  Q 213.58 88.59 213.73 88.51
  A 0.22 0.21 65.3 0 0 213.83 88.23
  Q 213.29 86.81 212.60 85.21
  Q 211.97 83.75 210.79 82.60
  Q 209.58 81.41 209.23 79.61
  C 208.97 78.31 208.20 77.39 207.30 76.47
  Q 206.26 75.42 205.94 73.96
  Q 205.46 71.73 204.70 69.49
  Q 204.37 68.51 204.10 67.48
  Q 203.62 65.64 202.47 64.26
  A 0.54 0.54 0.0 0 1 202.85 63.38
  Q 203.47 63.34 204.06 63.40
  Q 204.68 63.46 204.09 63.25
  Q 203.93 63.19 203.90 63.02
  Q 203.86 62.80 203.96 62.60
  Q 204.09 62.32 203.93 62.06
  Q 202.88 60.32 201.95 57.90
  Q 198.88 49.86 196.04 42.51
  Q 195.13 40.16 194.36 37.28
  Q 193.68 34.74 192.74 32.34
  Q 192.56 31.87 192.06 31.88
  Q 190.97 31.89 189.76 31.85
  Q 188.66 31.81 189.64 31.32
  Q 189.88 31.20 189.91 30.93
  Q 189.98 30.19 189.64 29.54
  Q 188.93 28.17 189.49 26.96
  Q 189.65 26.62 189.27 26.59
  L 175.35 25.60
  Q 192.62 24.03 209.08 26.05
  Z"
/>
<path fill="#26a6e3" d="
  M 175.35 25.60
  L 189.27 26.59
  Q 189.65 26.62 189.49 26.96
  Q 188.93 28.17 189.64 29.54
  Q 189.98 30.19 189.91 30.93
  Q 189.88 31.20 189.64 31.32
  Q 188.66 31.81 189.76 31.85
  Q 190.97 31.89 192.06 31.88
  Q 192.56 31.87 192.74 32.34
  Q 193.68 34.74 194.36 37.28
  Q 195.13 40.16 196.04 42.51
  Q 198.88 49.86 201.95 57.90
  Q 202.88 60.32 203.93 62.06
  Q 204.09 62.32 203.96 62.60
  Q 203.86 62.80 203.90 63.02
  Q 203.93 63.19 204.09 63.25
  Q 204.68 63.46 204.06 63.40
  Q 203.47 63.34 202.85 63.38
  A 0.54 0.54 0.0 0 0 202.47 64.26
  Q 203.62 65.64 204.10 67.48
  Q 204.37 68.51 204.70 69.49
  Q 205.46 71.73 205.94 73.96
  Q 206.26 75.42 207.30 76.47
  C 208.20 77.39 208.97 78.31 209.23 79.61
  Q 209.58 81.41 210.79 82.60
  Q 211.97 83.75 212.60 85.21
  Q 213.29 86.81 213.83 88.23
  A 0.22 0.21 65.3 0 1 213.73 88.51
  Q 213.58 88.59 213.55 88.76
  Q 213.47 89.20 213.92 89.27
  L 240.48 93.21
  L 244.82 93.90
  Q 244.94 94.83 244.79 95.38
  Q 244.77 95.45 244.72 95.50
  Q 244.59 95.62 244.45 95.60
  Q 243.86 95.49 244.33 95.85
  Q 244.51 95.99 244.66 96.15
  A 0.55 0.54 -50.7 0 1 244.72 96.83
  Q 244.47 97.22 244.67 97.65
  Q 244.92 98.18 245.50 98.11
  Q 245.56 98.10 245.59 98.15
  Q 246.14 98.90 245.18 98.97
  Q 244.69 99.00 244.46 99.38
  A 0.45 0.44 -61.3 0 0 244.64 100.02
  Q 245.59 100.48 245.85 101.46
  Q 246.17 102.72 247.13 103.53
  Q 247.38 103.73 247.29 104.04
  Q 246.88 105.38 248.00 106.34
  Q 248.40 106.68 248.43 107.20
  Q 248.61 109.54 250.17 111.32
  Q 250.37 111.54 250.32 111.83
  Q 250.28 112.04 250.06 112.13
  A 0.36 0.35 70.3 0 0 249.85 112.59
  Q 252.37 119.44 254.05 126.72
  Q 254.09 126.87 254.27 126.87
  Q 254.39 126.87 254.54 126.92
  Q 254.76 126.98 254.78 127.21
  C 254.94 128.91 255.74 130.51 255.92 132.29
  Q 256.17 134.62 257.45 136.24
  Q 257.65 136.49 257.40 136.68
  Q 257.29 136.77 257.19 136.86
  Q 256.82 137.20 257.08 137.64
  Q 258.12 139.29 257.24 140.75
  Q 256.99 141.16 257.34 141.49
  Q 257.46 141.60 257.61 141.65
  Q 258.10 141.79 258.23 142.28
  L 259.14 145.67
  Q 259.26 146.13 259.16 146.60
  Q 258.90 147.76 259.32 148.58
  Q 259.64 149.20 258.97 149.35
  Q 258.81 149.39 258.69 149.51
  Q 258.56 149.65 258.37 149.59
  Q 258.14 149.52 258.16 149.27
  Q 258.18 149.00 258.02 149.22
  Q 257.95 149.31 257.84 149.31
  Q 257.39 149.34 257.84 149.39
  Q 258.10 149.42 258.06 149.83
  A 0.33 0.32 -76.2 0 1 257.62 150.10
  Q 252.37 148.11 246.75 146.36
  Q 246.13 146.17 245.45 146.55
  L 244.09 146.22
  Q 244.05 145.79 243.44 145.43
  Q 242.98 145.16 242.45 145.16
  C 240.84 145.15 239.26 145.16 237.81 144.29
  Q 235.98 143.19 234.46 142.83
  Q 230.16 141.80 226.38 140.66
  Q 221.23 139.11 218.28 138.46
  Q 210.42 136.73 202.49 135.31
  Q 203.24 135.41 203.64 135.30
  Q 204.27 135.13 203.81 134.66
  Q 203.23 134.07 203.58 133.39
  Q 203.79 132.99 204.24 133.03
  Q 204.40 133.05 204.49 133.17
  Q 205.06 133.85 204.88 132.98
  C 204.08 129.07 202.39 125.74 201.26 122.01
  Q 197.18 108.43 192.74 94.22
  Q 192.25 92.63 191.61 91.29
  Q 190.89 89.79 191.04 88.36
  Q 191.11 87.68 190.43 87.66
  Q 175.25 87.23 162.97 88.11
  Q 152.31 88.87 139.21 91.56
  A 0.49 0.48 -14.6 0 1 138.65 91.24
  Q 138.60 91.08 138.66 90.91
  Q 138.78 90.55 138.56 90.24
  Q 137.46 88.60 136.37 86.71
  Q 135.47 85.16 135.05 83.41
  Q 134.62 81.63 133.88 79.99
  Q 130.63 72.81 127.47 64.41
  Q 127.18 63.64 126.48 61.13
  Q 126.03 59.48 125.22 57.93
  Q 124.60 56.72 124.33 55.65
  Q 124.03 54.50 123.68 53.35
  Q 123.25 51.91 122.25 50.05
  Q 118.86 43.72 118.40 36.86
  L 121.78 35.33
  Q 122.73 35.99 123.40 35.67
  Q 124.09 35.33 124.13 35.32
  Q 129.51 33.94 134.88 31.91
  Q 147.60 28.68 160.93 26.84
  C 161.95 26.70 162.44 26.02 163.37 25.99
  Q 169.52 25.79 175.35 25.60
  Z"
/>
<path fill="#26cfd7" d="
  M 209.08 26.05
  Q 212.93 25.42 216.33 26.10
  Q 221.68 27.16 221.79 27.17
  Q 226.42 27.67 231.50 28.07
  C 232.45 28.14 233.35 28.74 234.38 28.87
  Q 241.03 29.73 247.12 31.56
  Q 252.55 32.71 257.55 34.04
  Q 258.71 34.34 260.01 34.42
  C 262.61 34.57 264.87 35.56 267.23 36.32
  Q 268.94 36.88 270.87 37.08
  Q 272.80 37.27 274.60 37.87
  Q 274.62 37.87 274.63 37.88
  L 274.89 38.14
  A 0.87 0.87 0.0 0 0 275.42 38.39
  Q 279.04 38.70 282.38 39.21
  Q 283.69 39.41 285.00 40.02
  Q 286.32 40.64 287.66 41.23
  Q 287.74 41.26 287.77 41.35
  Q 287.82 41.47 287.87 41.59
  Q 288.09 42.14 287.50 42.14
  L 286.97 42.14
  Q 286.40 42.14 286.39 42.71
  C 286.35 44.56 286.15 46.10 287.08 47.87
  Q 288.22 50.03 289.22 53.05
  Q 291.86 60.97 295.02 68.16
  Q 296.73 72.05 298.05 75.88
  Q 299.39 79.79 300.94 83.65
  Q 302.18 86.72 303.17 89.97
  Q 304.35 93.84 305.37 96.18
  Q 306.47 98.71 307.57 101.17
  C 308.23 102.65 308.40 104.15 309.52 105.41
  Q 309.90 105.84 309.96 106.41
  Q 310.11 107.93 310.71 109.01
  L 299.10 106.04
  Q 283.40 101.88 267.68 98.27
  Q 263.57 97.33 256.25 96.12
  Q 250.51 95.16 244.82 93.90
  L 240.48 93.21
  Q 239.04 91.61 239.25 90.77
  Q 239.34 90.41 239.19 90.07
  Q 234.74 79.72 232.92 72.99
  Q 230.87 65.40 228.38 59.87
  Q 227.64 58.23 227.18 56.81
  Q 226.52 54.74 226.07 53.74
  Q 224.70 50.71 223.60 47.45
  Q 222.52 44.26 221.19 41.23
  Q 218.85 35.86 217.33 30.10
  Q 217.10 29.22 217.99 29.38
  Q 218.41 29.46 218.68 29.13
  Q 218.95 28.83 219.35 28.87
  Q 220.51 29.01 221.65 28.69
  Q 222.34 28.50 221.67 28.24
  Q 217.88 26.81 216.87 26.90
  Q 212.67 27.31 209.08 26.05
  Z"
/>
<path fill="#26f2cd" d="
  M 247.12 31.56
  Q 251.56 31.37 255.78 32.38
  Q 257.82 32.87 259.81 33.30
  Q 288.78 39.46 297.53 42.01
  Q 323.84 49.68 351.15 61.30
  C 354.07 62.54 356.76 64.07 359.53 65.60
  Q 361.14 66.49 362.63 67.77
  Q 372.25 76.12 376.87 83.23
  Q 379.60 87.43 382.32 94.82
  C 385.40 103.19 385.52 112.20 385.26 121.04
  Q 385.14 124.87 384.01 128.19
  C 382.97 131.26 382.43 134.42 381.09 137.46
  Q 373.98 153.60 359.25 163.16
  Q 348.20 170.34 336.27 171.83
  Q 330.48 172.55 323.41 172.36
  Q 318.83 172.23 313.71 170.67
  Q 306.98 168.61 300.48 165.82
  Q 304.67 166.30 309.03 168.08
  C 309.87 168.42 310.49 168.95 311.38 169.17
  Q 314.79 170.01 318.33 171.16
  Q 325.73 171.98 333.22 171.39
  Q 335.71 171.19 337.92 170.57
  Q 340.35 169.88 342.72 169.49
  Q 346.17 168.91 349.61 167.33
  Q 356.05 164.38 360.79 160.86
  Q 364.42 158.17 368.21 154.63
  Q 370.50 152.50 372.17 150.20
  Q 373.26 148.71 374.31 147.19
  Q 377.13 143.10 380.03 136.76
  Q 380.13 136.52 380.39 136.56
  Q 380.82 136.64 380.65 136.23
  Q 380.33 135.44 380.80 134.74
  Q 381.25 134.06 380.45 134.18
  Q 379.41 134.33 378.52 133.82
  Q 375.11 131.86 371.47 130.37
  Q 361.86 126.45 352.78 122.79
  Q 343.66 119.10 334.03 115.94
  Q 324.35 112.77 315.00 109.88
  Q 313.78 109.50 310.71 109.01
  Q 310.11 107.93 309.96 106.41
  Q 309.90 105.84 309.52 105.41
  C 308.40 104.15 308.23 102.65 307.57 101.17
  Q 306.47 98.71 305.37 96.18
  Q 304.35 93.84 303.17 89.97
  Q 302.18 86.72 300.94 83.65
  Q 299.39 79.79 298.05 75.88
  Q 296.73 72.05 295.02 68.16
  Q 291.86 60.97 289.22 53.05
  Q 288.22 50.03 287.08 47.87
  C 286.15 46.10 286.35 44.56 286.39 42.71
  Q 286.40 42.14 286.97 42.14
  L 287.50 42.14
  Q 288.09 42.14 287.87 41.59
  Q 287.82 41.47 287.77 41.35
  Q 287.74 41.26 287.66 41.23
  Q 286.32 40.64 285.00 40.02
  Q 283.69 39.41 282.38 39.21
  Q 279.04 38.70 275.42 38.39
  A 0.87 0.87 0.0 0 1 274.89 38.14
  L 274.63 37.88
  Q 274.62 37.87 274.60 37.87
  Q 272.80 37.27 270.87 37.08
  Q 268.94 36.88 267.23 36.32
  C 264.87 35.56 262.61 34.57 260.01 34.42
  Q 258.71 34.34 257.55 34.04
  Q 252.55 32.71 247.12 31.56
  Z"
/>
<path fill="#26bedc" d="
  M 134.88 31.91
  Q 129.51 33.94 124.13 35.32
  Q 124.09 35.33 123.40 35.67
  Q 122.73 35.99 121.78 35.33
  Q 127.93 32.66 134.88 31.91
  Z"
/>
<path fill="#2687ec" d="
  M 118.40 36.86
  Q 118.86 43.72 122.25 50.05
  Q 123.25 51.91 123.68 53.35
  Q 124.03 54.50 124.33 55.65
  Q 124.60 56.72 125.22 57.93
  Q 126.03 59.48 126.48 61.13
  Q 127.18 63.64 127.47 64.41
  Q 130.63 72.81 133.88 79.99
  Q 134.62 81.63 135.05 83.41
  Q 135.47 85.16 136.37 86.71
  Q 137.46 88.60 138.56 90.24
  Q 138.78 90.55 138.66 90.91
  Q 138.60 91.08 138.65 91.24
  A 0.49 0.48 -14.6 0 0 139.21 91.56
  Q 152.31 88.87 162.97 88.11
  Q 175.25 87.23 190.43 87.66
  Q 191.11 87.68 191.04 88.36
  Q 190.89 89.79 191.61 91.29
  Q 192.25 92.63 192.74 94.22
  Q 197.18 108.43 201.26 122.01
  C 202.39 125.74 204.08 129.07 204.88 132.98
  Q 205.06 133.85 204.49 133.17
  Q 204.40 133.05 204.24 133.03
  Q 203.79 132.99 203.58 133.39
  Q 203.23 134.07 203.81 134.66
  Q 204.27 135.13 203.64 135.30
  Q 203.24 135.41 202.49 135.31
  L 188.06 133.37
  Q 160.96 130.23 134.34 134.13
  Q 137.28 133.00 135.34 128.02
  Q 132.37 120.36 130.32 112.39
  Q 129.87 110.64 128.53 108.87
  Q 128.20 108.45 128.51 108.00
  Q 128.77 107.65 128.60 107.24
  Q 127.89 105.49 127.53 103.70
  Q 127.43 103.21 127.01 102.92
  Q 126.43 102.54 126.65 101.74
  A 1.22 1.21 26.9 0 0 126.23 100.47
  Q 125.82 100.14 125.68 99.65
  A 5.58 5.04 17.6 0 0 124.28 97.26
  Q 123.55 96.53 122.43 96.45
  Q 121.43 96.38 120.44 96.71
  Q 108.60 100.80 97.31 107.06
  Q 95.29 103.46 92.07 102.42
  Q 91.63 102.28 91.57 101.81
  Q 91.43 100.51 90.65 99.36
  Q 90.35 98.93 90.38 98.40
  Q 90.42 97.73 90.31 97.50
  Q 86.77 90.04 83.57 81.85
  Q 82.71 79.66 81.43 77.05
  Q 80.30 74.73 79.24 72.24
  C 78.53 70.55 78.07 68.16 77.00 66.31
  Q 76.17 64.89 74.68 64.86
  Q 74.26 64.85 74.17 64.45
  Q 74.01 63.78 74.20 63.15
  Q 74.32 62.72 74.09 62.35
  Q 73.60 61.54 73.74 59.77
  Q 75.14 58.83 76.70 57.57
  Q 78.13 56.42 79.71 55.49
  Q 83.68 53.13 87.67 50.70
  Q 96.97 45.04 112.79 38.81
  Q 117.19 37.07 118.40 36.86
  Z"
/>
<path fill="#2673f1" d="
  M 73.74 59.77
  Q 73.60 61.54 74.09 62.35
  Q 74.32 62.72 74.20 63.15
  Q 74.01 63.78 74.17 64.45
  Q 74.26 64.85 74.68 64.86
  Q 76.17 64.89 77.00 66.31
  C 78.07 68.16 78.53 70.55 79.24 72.24
  Q 80.30 74.73 81.43 77.05
  Q 82.71 79.66 83.57 81.85
  Q 86.77 90.04 90.31 97.50
  Q 90.42 97.73 90.38 98.40
  Q 90.35 98.93 90.65 99.36
  Q 91.43 100.51 91.57 101.81
  Q 91.63 102.28 92.07 102.42
  Q 95.29 103.46 97.31 107.06
  Q 59.90 127.23 41.11 165.83
  Q 40.95 166.15 40.35 166.02
  A 0.54 0.54 0.0 0 1 40.01 165.75
  L 37.61 160.93
  A 0.68 0.62 -87.3 0 0 37.42 160.70
  Q 36.55 160.02 36.80 158.93
  Q 36.84 158.75 36.67 158.68
  Q 36.53 158.62 36.39 158.62
  Q 36.05 158.63 35.91 158.32
  Q 33.20 152.27 30.13 145.96
  Q 28.38 142.34 26.25 135.20
  Q 25.74 133.49 24.22 131.88
  A 1.42 1.41 -69.5 0 1 23.86 131.08
  Q 23.72 129.91 22.30 129.66
  Q 24.78 121.76 28.45 114.21
  Q 37.81 94.98 49.92 81.66
  Q 60.68 69.83 65.70 65.93
  Q 69.42 63.04 73.74 59.77
  Z"
/>
<path fill="#26bedc" d="
  M 244.82 93.90
  Q 250.51 95.16 256.25 96.12
  Q 263.57 97.33 267.68 98.27
  Q 283.40 101.88 299.10 106.04
  L 299.56 110.67
  A 1.16 1.13 -38.5 0 1 299.50 111.14
  Q 299.29 111.73 299.33 112.40
  Q 299.34 112.64 299.49 112.81
  Q 299.59 112.94 299.76 112.78
  Q 299.85 112.68 299.89 112.81
  L 303.95 125.45
  A 0.62 0.62 0.0 0 1 303.27 126.25
  Q 302.95 126.20 302.75 126.45
  Q 302.39 126.90 302.97 126.90
  L 304.00 126.91
  Q 304.60 126.91 304.75 127.49
  Q 305.32 129.73 306.08 132.10
  Q 306.84 134.48 307.40 136.85
  Q 308.72 142.56 310.55 147.84
  Q 311.73 151.28 312.61 154.94
  Q 313.27 157.69 314.48 160.32
  Q 315.67 162.92 316.33 165.62
  Q 316.63 166.86 316.49 167.91
  Q 316.40 168.58 316.96 168.95
  Q 317.12 169.06 316.96 169.16
  Q 316.83 169.25 316.71 169.31
  Q 316.27 169.53 316.71 169.73
  Q 318.27 170.45 318.33 171.16
  Q 314.79 170.01 311.38 169.17
  C 310.49 168.95 309.87 168.42 309.03 168.08
  Q 304.67 166.30 300.48 165.82
  Q 281.81 158.74 262.77 152.51
  Q 261.82 152.20 258.78 151.97
  Q 258.21 151.92 258.10 151.36
  Q 258.03 151.03 257.72 150.79
  A 0.90 0.86 -19.6 0 0 257.41 150.65
  C 256.22 150.39 255.14 150.26 254.04 149.66
  Q 251.86 148.49 249.18 148.20
  A 1.08 0.99 58.7 0 1 248.87 148.11
  L 245.45 146.55
  Q 246.13 146.17 246.75 146.36
  Q 252.37 148.11 257.62 150.10
  A 0.33 0.32 -76.2 0 0 258.06 149.83
  Q 258.10 149.42 257.84 149.39
  Q 257.39 149.34 257.84 149.31
  Q 257.95 149.31 258.02 149.22
  Q 258.18 149.00 258.16 149.27
  Q 258.14 149.52 258.37 149.59
  Q 258.56 149.65 258.69 149.51
  Q 258.81 149.39 258.97 149.35
  Q 259.64 149.20 259.32 148.58
  Q 258.90 147.76 259.16 146.60
  Q 259.26 146.13 259.14 145.67
  L 258.23 142.28
  Q 258.10 141.79 257.61 141.65
  Q 257.46 141.60 257.34 141.49
  Q 256.99 141.16 257.24 140.75
  Q 258.12 139.29 257.08 137.64
  Q 256.82 137.20 257.19 136.86
  Q 257.29 136.77 257.40 136.68
  Q 257.65 136.49 257.45 136.24
  Q 256.17 134.62 255.92 132.29
  C 255.74 130.51 254.94 128.91 254.78 127.21
  Q 254.76 126.98 254.54 126.92
  Q 254.39 126.87 254.27 126.87
  Q 254.09 126.87 254.05 126.72
  Q 252.37 119.44 249.85 112.59
  A 0.36 0.35 70.3 0 1 250.06 112.13
  Q 250.28 112.04 250.32 111.83
  Q 250.37 111.54 250.17 111.32
  Q 248.61 109.54 248.43 107.20
  Q 248.40 106.68 248.00 106.34
  Q 246.88 105.38 247.29 104.04
  Q 247.38 103.73 247.13 103.53
  Q 246.17 102.72 245.85 101.46
  Q 245.59 100.48 244.64 100.02
  A 0.45 0.44 -61.3 0 1 244.46 99.38
  Q 244.69 99.00 245.18 98.97
  Q 246.14 98.90 245.59 98.15
  Q 245.56 98.10 245.50 98.11
  Q 244.92 98.18 244.67 97.65
  Q 244.47 97.22 244.72 96.83
  A 0.55 0.54 -50.7 0 0 244.66 96.15
  Q 244.51 95.99 244.33 95.85
  Q 243.86 95.49 244.45 95.60
  Q 244.59 95.62 244.72 95.50
  Q 244.77 95.45 244.79 95.38
  Q 244.94 94.83 244.82 93.90
  Z"
/>
<path fill="#2655fa" d="
  M 134.34 134.13
  L 125.52 135.89
  Q 123.96 135.96 123.75 136.47
  L 114.64 138.86
  Q 114.13 138.99 113.61 138.94
  Q 112.84 138.88 112.38 139.46
  Q 112.09 139.82 111.63 139.94
  Q 106.98 141.11 102.58 143.08
  Q 102.22 143.24 101.99 143.56
  Q 101.90 143.68 101.77 143.76
  Q 101.65 143.84 101.50 143.88
  Q 96.74 145.21 92.45 147.90
  C 91.15 148.72 89.57 148.96 88.23 149.77
  Q 83.07 152.89 78.91 155.68
  Q 63.41 166.08 51.17 180.45
  Q 50.88 180.79 50.61 181.12
  Q 34.39 201.06 24.73 223.83
  Q 23.89 225.81 23.15 223.80
  C 19.15 212.97 16.46 201.19 15.71 189.53
  C 15.36 184.18 14.85 178.85 15.09 173.50
  Q 15.57 162.71 17.05 152.00
  Q 18.61 140.63 22.30 129.66
  Q 23.72 129.91 23.86 131.08
  A 1.42 1.41 -69.5 0 0 24.22 131.88
  Q 25.74 133.49 26.25 135.20
  Q 28.38 142.34 30.13 145.96
  Q 33.20 152.27 35.91 158.32
  Q 36.05 158.63 36.39 158.62
  Q 36.53 158.62 36.67 158.68
  Q 36.84 158.75 36.80 158.93
  Q 36.55 160.02 37.42 160.70
  A 0.68 0.62 -87.3 0 1 37.61 160.93
  L 40.01 165.75
  A 0.54 0.54 0.0 0 0 40.35 166.02
  Q 40.95 166.15 41.11 165.83
  Q 59.90 127.23 97.31 107.06
  Q 108.60 100.80 120.44 96.71
  Q 121.43 96.38 122.43 96.45
  Q 123.55 96.53 124.28 97.26
  A 5.58 5.04 17.6 0 1 125.68 99.65
  Q 125.82 100.14 126.23 100.47
  A 1.22 1.21 26.9 0 1 126.65 101.74
  Q 126.43 102.54 127.01 102.92
  Q 127.43 103.21 127.53 103.70
  Q 127.89 105.49 128.60 107.24
  Q 128.77 107.65 128.51 108.00
  Q 128.20 108.45 128.53 108.87
  Q 129.87 110.64 130.32 112.39
  Q 132.37 120.36 135.34 128.02
  Q 137.28 133.00 134.34 134.13
  Z"
/>
<path fill="#26d8d5" d="
  M 299.10 106.04
  L 310.71 109.01
  Q 313.78 109.50 315.00 109.88
  Q 324.35 112.77 334.03 115.94
  Q 343.66 119.10 352.78 122.79
  Q 361.86 126.45 371.47 130.37
  Q 375.11 131.86 378.52 133.82
  Q 379.41 134.33 380.45 134.18
  Q 381.25 134.06 380.80 134.74
  Q 380.33 135.44 380.65 136.23
  Q 380.82 136.64 380.39 136.56
  Q 380.13 136.52 380.03 136.76
  Q 377.13 143.10 374.31 147.19
  Q 373.26 148.71 372.17 150.20
  Q 370.50 152.50 368.21 154.63
  Q 364.42 158.17 360.79 160.86
  Q 356.05 164.38 349.61 167.33
  Q 346.17 168.91 342.72 169.49
  Q 340.35 169.88 337.92 170.57
  Q 335.71 171.19 333.22 171.39
  Q 325.73 171.98 318.33 171.16
  Q 318.27 170.45 316.71 169.73
  Q 316.27 169.53 316.71 169.31
  Q 316.83 169.25 316.96 169.16
  Q 317.12 169.06 316.96 168.95
  Q 316.40 168.58 316.49 167.91
  Q 316.63 166.86 316.33 165.62
  Q 315.67 162.92 314.48 160.32
  Q 313.27 157.69 312.61 154.94
  Q 311.73 151.28 310.55 147.84
  Q 308.72 142.56 307.40 136.85
  Q 306.84 134.48 306.08 132.10
  Q 305.32 129.73 304.75 127.49
  Q 304.60 126.91 304.00 126.91
  L 302.97 126.90
  Q 302.39 126.90 302.75 126.45
  Q 302.95 126.20 303.27 126.25
  A 0.62 0.62 0.0 0 0 303.95 125.45
  L 299.89 112.81
  Q 299.85 112.68 299.76 112.78
  Q 299.59 112.94 299.49 112.81
  Q 299.34 112.64 299.33 112.40
  Q 299.29 111.73 299.50 111.14
  A 1.16 1.13 -38.5 0 0 299.56 110.67
  L 299.10 106.04
  Z"
/>
<path fill="#26cfd7" d="
  M 188.06 133.37
  Q 188.43 134.71 188.13 135.26
  Q 187.33 136.76 187.09 138.36
  Q 186.41 143.09 186.13 148.54
  Q 185.85 154.17 185.14 159.62
  Q 183.40 173.06 182.88 186.44
  Q 182.86 186.99 182.50 187.40
  Q 181.51 188.55 180.02 188.62
  Q 179.50 188.65 179.06 188.93
  Q 172.76 193.00 165.72 196.33
  Q 163.14 197.55 160.97 198.87
  Q 158.59 200.32 156.20 201.72
  Q 155.54 202.11 155.08 202.69
  Q 154.78 203.07 154.31 203.16
  Q 152.76 203.45 151.32 204.20
  Q 149.97 204.91 148.56 205.59
  Q 146.53 206.58 144.65 207.59
  Q 140.59 209.78 136.38 211.67
  Q 134.50 212.52 132.28 213.18
  Q 130.20 213.79 128.39 214.98
  Q 127.96 215.26 127.46 215.31
  Q 126.07 215.47 124.88 216.20
  Q 124.51 216.43 124.74 216.79
  Q 124.98 217.17 124.54 217.18
  Q 124.28 217.20 124.03 217.00
  Q 123.88 216.87 123.93 216.68
  Q 123.97 216.54 123.88 216.43
  Q 123.74 216.25 123.62 216.46
  Q 123.56 216.58 123.44 216.67
  Q 123.23 216.85 123.18 216.58
  Q 123.12 216.29 123.14 216.00
  Q 123.16 215.75 123.02 215.96
  Q 122.95 216.07 122.84 215.98
  Q 122.51 215.72 122.58 216.14
  Q 122.70 216.82 122.06 217.03
  A 0.33 0.32 -8.1 0 1 121.63 216.71
  Q 121.65 216.33 121.33 216.16
  Q 120.61 215.79 120.67 216.60
  Q 120.78 218.26 120.08 218.78
  Q 119.80 206.58 120.06 194.52
  Q 120.07 194.27 120.20 194.01
  Q 120.37 193.69 120.39 193.50
  Q 120.96 184.91 120.96 176.69
  C 120.96 176.05 121.35 175.55 121.40 174.87
  Q 121.65 171.82 121.82 168.33
  Q 121.97 165.15 122.40 161.70
  Q 123.31 154.45 123.90 147.30
  Q 125.24 145.06 124.53 141.44
  Q 125.17 139.41 124.53 138.05
  Q 125.95 138.07 125.52 135.89
  L 134.34 134.13
  Q 160.96 130.23 188.06 133.37
  Z"
/>
<path fill="#26aee0" d="
  M 188.06 133.37
  L 202.49 135.31
  Q 210.42 136.73 218.28 138.46
  Q 221.23 139.11 226.38 140.66
  Q 230.16 141.80 234.46 142.83
  Q 235.98 143.19 237.81 144.29
  C 239.26 145.16 240.84 145.15 242.45 145.16
  Q 242.98 145.16 243.44 145.43
  Q 244.05 145.79 244.09 146.22
  L 241.03 146.41
  Q 240.50 146.44 240.39 146.97
  L 231.92 189.80
  L 231.16 190.20
  Q 230.73 190.43 230.86 190.90
  Q 230.98 191.32 230.89 191.79
  Q 230.79 192.29 230.29 192.17
  Q 228.56 191.75 226.98 192.55
  Q 225.51 193.29 225.43 193.33
  Q 216.60 197.07 209.60 201.04
  Q 209.50 201.10 209.38 201.11
  Q 209.25 201.12 209.12 201.11
  A 0.67 0.02 -24.9 0 0 208.55 201.35
  L 183.55 213.29
  A 2.11 2.10 75.1 0 0 182.36 215.35
  L 184.07 238.19
  L 179.59 239.63
  Q 179.11 239.78 178.87 240.22
  Q 178.58 240.74 177.99 240.80
  Q 177.45 240.85 176.98 241.12
  Q 175.34 242.06 173.80 243.11
  Q 172.24 244.18 170.57 244.98
  Q 166.52 246.94 162.53 248.91
  Q 160.42 249.95 159.34 251.48
  Q 158.06 253.29 156.23 254.16
  Q 153.92 255.26 151.90 256.79
  Q 151.49 257.10 150.98 257.12
  Q 150.10 257.16 150.10 258.08
  Q 150.10 258.52 149.73 258.78
  L 148.36 259.71
  Q 148.00 259.97 147.87 260.39
  Q 147.69 261.00 147.01 261.15
  Q 146.36 261.28 145.72 261.61
  Q 140.19 264.48 135.06 266.66
  Q 133.76 267.21 132.37 267.62
  Q 131.00 268.03 129.79 268.61
  Q 129.34 268.83 128.92 268.55
  Q 128.67 268.39 128.38 268.42
  Q 127.86 268.47 128.05 268.95
  Q 128.25 269.46 128.14 270.01
  Q 128.06 270.41 127.53 270.28
  Q 126.77 269.07 126.80 267.48
  Q 126.81 266.95 126.54 266.49
  Q 125.51 264.69 125.68 262.50
  Q 125.73 261.95 125.48 261.46
  C 124.67 259.89 124.87 258.18 124.46 256.48
  Q 123.13 250.88 122.47 245.64
  Q 122.41 245.23 122.18 244.88
  Q 122.03 244.66 122.00 244.39
  Q 120.45 231.55 120.08 218.78
  Q 120.78 218.26 120.67 216.60
  Q 120.61 215.79 121.33 216.16
  Q 121.65 216.33 121.63 216.71
  A 0.33 0.32 -8.1 0 0 122.06 217.03
  Q 122.70 216.82 122.58 216.14
  Q 122.51 215.72 122.84 215.98
  Q 122.95 216.07 123.02 215.96
  Q 123.16 215.75 123.14 216.00
  Q 123.12 216.29 123.18 216.58
  Q 123.23 216.85 123.44 216.67
  Q 123.56 216.58 123.62 216.46
  Q 123.74 216.25 123.88 216.43
  Q 123.97 216.54 123.93 216.68
  Q 123.88 216.87 124.03 217.00
  Q 124.28 217.20 124.54 217.18
  Q 124.98 217.17 124.74 216.79
  Q 124.51 216.43 124.88 216.20
  Q 126.07 215.47 127.46 215.31
  Q 127.96 215.26 128.39 214.98
  Q 130.20 213.79 132.28 213.18
  Q 134.50 212.52 136.38 211.67
  Q 140.59 209.78 144.65 207.59
  Q 146.53 206.58 148.56 205.59
  Q 149.97 204.91 151.32 204.20
  Q 152.76 203.45 154.31 203.16
  Q 154.78 203.07 155.08 202.69
  Q 155.54 202.11 156.20 201.72
  Q 158.59 200.32 160.97 198.87
  Q 163.14 197.55 165.72 196.33
  Q 172.76 193.00 179.06 188.93
  Q 179.50 188.65 180.02 188.62
  Q 181.51 188.55 182.50 187.40
  Q 182.86 186.99 182.88 186.44
  Q 183.40 173.06 185.14 159.62
  Q 185.85 154.17 186.13 148.54
  Q 186.41 143.09 187.09 138.36
  Q 187.33 136.76 188.13 135.26
  Q 188.43 134.71 188.06 133.37
  Z"
/>
<path fill="#26f2cd" d="
  M 125.52 135.89
  Q 125.95 138.07 124.53 138.05
  Q 123.94 138.28 123.75 136.47
  Q 123.96 135.96 125.52 135.89
  Z"
/>
<path fill="#26f2cd" d="
  M 124.53 141.44
  Q 125.24 145.06 123.90 147.30
  Q 123.52 143.90 124.53 141.44
  Z"
/>
<path fill="#2687ec" d="
  M 231.92 189.80
  Q 227.90 214.68 229.36 239.82
  Q 229.53 242.58 230.13 247.66
  Q 230.59 251.57 230.91 255.51
  Q 229.96 255.12 230.12 254.00
  Q 230.25 253.13 229.98 252.37
  Q 229.79 251.87 229.79 252.41
  Q 229.78 252.56 229.63 252.64
  Q 229.45 252.73 229.28 252.64
  L 227.89 251.92
  Q 227.49 251.71 227.11 251.95
  Q 225.89 252.70 225.13 253.71
  Q 224.82 254.12 224.30 254.12
  L 223.43 254.12
  Q 222.78 254.12 222.86 254.77
  Q 223.08 256.51 221.30 256.69
  Q 221.20 256.70 221.17 256.60
  Q 221.13 256.48 221.05 256.37
  Q 221.00 256.31 220.93 256.33
  Q 219.78 256.70 218.40 256.38
  Q 217.62 256.20 217.62 257.00
  L 217.62 257.59
  Q 217.63 258.07 217.20 258.26
  Q 206.86 262.89 196.79 267.39
  Q 194.39 268.46 191.59 269.44
  Q 191.13 269.60 191.17 270.09
  Q 191.31 272.05 190.36 271.80
  Q 186.49 257.48 184.78 242.73
  Q 184.56 240.84 184.07 238.19
  L 182.36 215.35
  A 2.11 2.10 75.1 0 1 183.55 213.29
  L 208.55 201.35
  A 0.67 0.02 -24.9 0 1 209.12 201.11
  Q 209.25 201.12 209.38 201.11
  Q 209.50 201.10 209.60 201.04
  Q 216.60 197.07 225.43 193.33
  Q 225.51 193.29 226.98 192.55
  Q 228.56 191.75 230.29 192.17
  Q 230.79 192.29 230.89 191.79
  Q 230.98 191.32 230.86 190.90
  Q 230.73 190.43 231.16 190.20
  L 231.92 189.80
  Z"
/>
<path fill="#2699e7" d="
  M 184.07 238.19
  Q 184.56 240.84 184.78 242.73
  Q 186.49 257.48 190.36 271.80
  Q 194.03 284.91 199.21 296.36
  Q 199.88 297.85 198.29 298.21
  Q 195.51 298.83 192.99 300.29
  Q 189.49 302.33 186.25 304.03
  Q 180.05 307.28 174.23 310.83
  Q 172.86 311.66 171.97 312.92
  Q 171.02 314.27 169.52 315.02
  Q 169.05 315.25 168.75 315.67
  Q 167.71 317.12 166.05 317.61
  Q 163.60 318.34 163.49 318.39
  Q 161.21 319.37 158.91 320.29
  C 156.94 321.08 154.88 320.99 153.07 322.26
  Q 152.70 322.51 152.25 322.46
  Q 151.60 322.39 150.95 322.40
  Q 150.88 322.40 150.82 322.43
  Q 150.77 322.45 150.73 322.49
  Q 150.47 322.70 150.80 322.64
  Q 151.47 322.52 151.96 322.93
  Q 152.64 323.49 151.76 323.51
  L 150.00 323.55
  Q 146.40 318.15 143.60 312.42
  Q 138.22 301.44 134.09 290.65
  C 133.91 290.20 133.69 290.07 133.38 289.74
  Q 133.18 289.54 133.13 289.27
  Q 132.57 286.35 131.19 283.68
  Q 130.94 283.21 130.97 282.67
  C 131.03 281.32 130.41 280.52 130.09 279.32
  Q 128.88 274.78 127.53 270.28
  Q 128.06 270.41 128.14 270.01
  Q 128.25 269.46 128.05 268.95
  Q 127.86 268.47 128.38 268.42
  Q 128.67 268.39 128.92 268.55
  Q 129.34 268.83 129.79 268.61
  Q 131.00 268.03 132.37 267.62
  Q 133.76 267.21 135.06 266.66
  Q 140.19 264.48 145.72 261.61
  Q 146.36 261.28 147.01 261.15
  Q 147.69 261.00 147.87 260.39
  Q 148.00 259.97 148.36 259.71
  L 149.73 258.78
  Q 150.10 258.52 150.10 258.08
  Q 150.10 257.16 150.98 257.12
  Q 151.49 257.10 151.90 256.79
  Q 153.92 255.26 156.23 254.16
  Q 158.06 253.29 159.34 251.48
  Q 160.42 249.95 162.53 248.91
  Q 166.52 246.94 170.57 244.98
  Q 172.24 244.18 173.80 243.11
  Q 175.34 242.06 176.98 241.12
  Q 177.45 240.85 177.99 240.80
  Q 178.58 240.74 178.87 240.22
  Q 179.11 239.78 179.59 239.63
  L 184.07 238.19
  Z"
/>
<path fill="#2673f1" d="
  M 230.91 255.51
  Q 231.25 258.81 231.95 262.05
  Q 232.70 265.53 233.19 268.54
  Q 233.93 273.00 235.29 277.99
  Q 239.23 292.42 245.16 305.02
  Q 244.56 305.35 244.10 305.08
  Q 243.79 304.90 243.96 304.58
  Q 244.04 304.42 244.03 304.24
  Q 244.01 303.73 243.63 304.07
  Q 241.10 306.42 238.72 307.33
  Q 232.74 309.63 226.80 311.98
  Q 224.89 312.74 223.42 313.64
  Q 221.75 314.65 220.06 315.52
  A 2.71 2.63 -82.8 0 0 219.26 316.16
  Q 218.48 317.10 217.25 316.99
  A 1.81 1.78 -56.3 0 0 216.23 317.20
  Q 214.65 318.07 212.96 318.30
  A 0.68 0.68 0.0 0 0 212.49 319.36
  Q 226.39 339.27 246.04 352.97
  C 252.24 357.29 258.98 360.80 265.68 364.10
  A 1.15 1.14 -46.2 0 1 265.72 366.13
  Q 259.57 369.50 253.41 373.38
  C 251.75 374.43 249.87 374.88 248.18 375.98
  Q 247.79 376.23 247.62 376.66
  Q 247.31 377.45 246.43 377.71
  Q 245.91 377.86 245.72 378.38
  L 245.06 380.20
  Q 244.90 380.63 244.44 380.71
  Q 240.05 381.40 236.53 384.37
  A 1.11 1.10 -62.1 0 1 235.73 384.62
  Q 234.01 384.48 233.18 385.97
  Q 233.10 386.12 232.93 386.11
  Q 232.80 386.11 232.70 385.99
  A 0.13 0.13 0.0 0 0 232.49 386.01
  L 231.41 388.21
  Q 207.25 380.42 187.01 365.12
  C 185.92 364.30 184.58 363.83 183.72 362.79
  Q 183.17 362.12 182.49 361.55
  Q 163.18 345.20 150.00 323.55
  L 151.76 323.51
  Q 152.64 323.49 151.96 322.93
  Q 151.47 322.52 150.80 322.64
  Q 150.47 322.70 150.73 322.49
  Q 150.77 322.45 150.82 322.43
  Q 150.88 322.40 150.95 322.40
  Q 151.60 322.39 152.25 322.46
  Q 152.70 322.51 153.07 322.26
  C 154.88 320.99 156.94 321.08 158.91 320.29
  Q 161.21 319.37 163.49 318.39
  Q 163.60 318.34 166.05 317.61
  Q 167.71 317.12 168.75 315.67
  Q 169.05 315.25 169.52 315.02
  Q 171.02 314.27 171.97 312.92
  Q 172.86 311.66 174.23 310.83
  Q 180.05 307.28 186.25 304.03
  Q 189.49 302.33 192.99 300.29
  Q 195.51 298.83 198.29 298.21
  Q 199.88 297.85 199.21 296.36
  Q 194.03 284.91 190.36 271.80
  Q 191.31 272.05 191.17 270.09
  Q 191.13 269.60 191.59 269.44
  Q 194.39 268.46 196.79 267.39
  Q 206.86 262.89 217.20 258.26
  Q 217.63 258.07 217.62 257.59
  L 217.62 257.00
  Q 217.62 256.20 218.40 256.38
  Q 219.78 256.70 220.93 256.33
  Q 221.00 256.31 221.05 256.37
  Q 221.13 256.48 221.17 256.60
  Q 221.20 256.70 221.30 256.69
  Q 223.08 256.51 222.86 254.77
  Q 222.78 254.12 223.43 254.12
  L 224.30 254.12
  Q 224.82 254.12 225.13 253.71
  Q 225.89 252.70 227.11 251.95
  Q 227.49 251.71 227.89 251.92
  L 229.28 252.64
  Q 229.45 252.73 229.63 252.64
  Q 229.78 252.56 229.79 252.41
  Q 229.79 251.87 229.98 252.37
  Q 230.25 253.13 230.12 254.00
  Q 229.96 255.12 230.91 255.51
  Z"
/>
<path fill="#2655fa" d="
  M 245.16 305.02
  Q 262.64 340.59 296.69 361.09
  Q 316.03 372.73 336.81 379.02
  Q 338.38 379.49 336.89 380.19
  Q 330.50 383.16 324.01 385.67
  Q 317.62 388.15 310.70 389.82
  Q 301.87 391.96 294.00 392.79
  Q 290.54 393.15 287.36 393.54
  Q 283.97 393.95 280.66 393.99
  Q 269.21 394.14 261.28 393.81
  Q 257.70 393.66 247.00 392.18
  Q 243.21 391.66 239.14 390.49
  Q 235.28 389.38 231.41 388.21
  L 232.49 386.01
  A 0.13 0.13 0.0 0 1 232.70 385.99
  Q 232.80 386.11 232.93 386.11
  Q 233.10 386.12 233.18 385.97
  Q 234.01 384.48 235.73 384.62
  A 1.11 1.10 -62.1 0 0 236.53 384.37
  Q 240.05 381.40 244.44 380.71
  Q 244.90 380.63 245.06 380.20
  L 245.72 378.38
  Q 245.91 377.86 246.43 377.71
  Q 247.31 377.45 247.62 376.66
  Q 247.79 376.23 248.18 375.98
  C 249.87 374.88 251.75 374.43 253.41 373.38
  Q 259.57 369.50 265.72 366.13
  A 1.15 1.14 -46.2 0 0 265.68 364.10
  C 258.98 360.80 252.24 357.29 246.04 352.97
  Q 226.39 339.27 212.49 319.36
  A 0.68 0.68 0.0 0 1 212.96 318.30
  Q 214.65 318.07 216.23 317.20
  A 1.81 1.78 -56.3 0 1 217.25 316.99
  Q 218.48 317.10 219.26 316.16
  A 2.71 2.63 -82.8 0 1 220.06 315.52
  Q 221.75 314.65 223.42 313.64
  Q 224.89 312.74 226.80 311.98
  Q 232.74 309.63 238.72 307.33
  Q 241.10 306.42 243.63 304.07
  Q 244.01 303.73 244.03 304.24
  Q 244.04 304.42 243.96 304.58
  Q 243.79 304.90 244.10 305.08
  Q 244.56 305.35 245.16 305.02
  Z"
/>
</svg>
