<?xml version="1.0" encoding="UTF-8" standalone="no"?>
<!DOCTYPE svg PUBLIC "-//W3C//DTD SVG 1.1//EN" "http://www.w3.org/Graphics/SVG/1.1/DTD/svg11.dtd">
<svg xmlns="http://www.w3.org/2000/svg" version="1.1" viewBox="0.00 0.00 323.00 118.00">
<path fill="#8379e7" d="
  M 44.02 18.28
  C 44.02 16.11 44.14 12.78 46.89 12.10
  C 49.63 11.42 52.12 13.36 52.12 16.18
  Q 52.12 22.77 52.08 29.34
  A 1.02 1.00 -12.3 0 1 51.48 30.26
  L 49.75 31.05
  Q 48.29 31.71 49.85 32.06
  Q 51.99 32.53 53.19 30.76
  Q 54.21 29.27 54.11 27.62
  Q 53.89 24.33 54.05 20.57
  Q 54.11 19.25 55.42 19.29
  C 56.27 19.32 57.01 18.98 57.83 19.09
  Q 60.92 19.51 64.45 18.92
  Q 65.11 18.81 65.00 18.15
  C 63.82 10.79 72.87 9.76 73.03 16.31
  Q 73.18 22.79 73.06 29.09
  A 1.11 1.08 -24.4 0 1 72.79 29.78
  L 71.92 30.76
  Q 71.44 31.30 70.80 30.99
  Q 70.47 30.83 70.13 30.98
  Q 69.49 31.25 70.07 31.65
  C 72.34 33.18 73.04 30.94 74.50 29.96
  Q 74.96 29.66 74.96 29.10
  L 74.89 20.14
  Q 74.88 19.53 75.49 19.44
  Q 80.14 18.75 84.84 19.04
  Q 86.20 19.13 85.96 17.79
  C 84.74 10.83 93.87 9.75 94.01 16.52
  Q 94.14 22.80 94.16 28.54
  Q 94.16 29.00 93.71 29.11
  Q 92.87 29.32 93.14 30.17
  Q 93.32 30.73 92.73 30.76
  Q 92.11 30.79 91.54 31.06
  A 0.47 0.46 44.7 0 0 91.55 31.90
  C 93.63 32.86 94.59 31.11 95.73 29.83
  Q 96.03 29.50 96.02 29.05
  L 95.82 20.69
  Q 95.79 19.52 96.95 19.32
  Q 100.40 18.73 104.49 19.32
  C 112.92 20.56 117.84 26.95 117.76 35.21
  Q 117.53 60.42 117.82 83.94
  Q 117.91 91.54 116.23 95.86
  C 113.22 103.60 105.61 109.41 97.05 109.39
  Q 72.03 109.34 42.18 109.40
  C 32.80 109.42 25.29 104.57 21.70 95.76
  Q 20.21 92.11 20.24 84.20
  Q 20.35 59.20 20.24 35.50
  C 20.20 28.16 23.93 21.68 31.14 19.84
  C 35.09 18.83 39.28 19.48 43.39 18.99
  Q 44.02 18.91 44.02 18.28
  Z
  M 111.26 44.97
  L 26.74 44.97
  A 0.54 0.54 0.0 0 0 26.20 45.51
  L 26.20 87.47
  A 16.34 16.12 0.0 0 0 42.54 103.59
  L 95.46 103.59
  A 16.34 16.12 0.0 0 0 111.80 87.47
  L 111.80 45.51
  A 0.54 0.54 0.0 0 0 111.26 44.97
  Z"
/>
<path fill="#8379e7" d="
  M 147.77 46.05
  L 148.89 49.17
  Q 149.21 50.06 148.34 50.42
  C 141.51 53.28 132.28 52.90 129.58 44.69
  Q 127.27 37.70 131.32 31.95
  C 134.87 26.91 143.00 27.42 148.10 29.39
  Q 149.10 29.77 148.78 30.80
  L 147.87 33.77
  Q 147.56 34.77 146.56 34.43
  Q 142.41 32.98 138.94 33.59
  C 133.59 34.55 133.58 45.33 138.65 46.34
  Q 142.49 47.11 146.58 45.51
  Q 147.46 45.17 147.77 46.05
  Z"
/>
<path fill="#8379e7" d="
  M 186.00 28.36
  A 4.29 4.28 -81.3 0 1 189.00 32.45
  L 189.00 51.00
  Q 189.00 52.00 188.00 52.00
  L 184.00 52.00
  Q 183.00 51.99 183.00 51.00
  L 183.00 30.03
  Q 183.00 27.42 185.48 28.20
  L 186.00 28.36
  Z"
/>
<path fill="#8379e7" d="
  M 260.06 35.30
  Q 259.87 33.54 260.12 31.67
  Q 260.46 29.15 262.89 28.37
  L 263.98 28.02
  Q 266.00 27.37 266.00 29.49
  L 266.00 51.04
  A 0.96 0.95 -2.3 0 1 265.12 51.99
  Q 262.21 52.20 260.83 50.03
  A 0.46 0.45 -41.0 0 0 260.10 49.98
  Q 258.37 52.01 256.07 51.94
  C 249.46 51.76 247.55 44.79 249.98 39.62
  Q 252.97 33.23 259.41 35.79
  Q 260.14 36.08 260.06 35.30
  Z
  M 257.75 46.73
  C 259.93 46.13 260.16 43.13 260.02 41.24
  Q 259.98 40.71 259.48 40.54
  C 255.53 39.13 253.64 43.64 255.75 46.11
  A 1.97 1.95 -27.6 0 0 257.75 46.73
  Z"
/>
<path fill="#8379e7" d="
  M 168.24 49.89
  C 165.56 52.84 161.31 52.55 158.87 49.70
  C 156.02 46.37 156.69 40.73 159.22 37.57
  Q 162.73 33.17 168.36 36.39
  Q 168.86 36.68 169.32 36.32
  Q 171.12 34.90 173.47 35.36
  Q 174.00 35.47 174.00 36.02
  L 173.99 51.19
  Q 173.99 51.77 173.43 51.88
  Q 170.40 52.46 168.74 49.93
  A 0.32 0.32 0.0 0 0 168.24 49.89
  Z
  M 166.05 46.56
  C 168.07 45.81 168.04 43.05 168.02 41.20
  Q 168.02 40.72 167.57 40.56
  C 161.62 38.33 161.74 48.16 166.05 46.56
  Z"
/>
<path fill="#8379e7" d="
  M 205.51 46.19
  C 206.94 47.70 210.10 46.78 211.86 46.31
  Q 212.82 46.05 213.06 47.02
  L 213.74 49.78
  Q 214.03 50.98 212.84 51.27
  Q 209.96 51.97 207.32 51.92
  C 202.30 51.83 197.99 47.66 198.65 42.49
  C 199.36 36.92 204.23 33.90 209.67 35.46
  C 211.92 36.11 213.87 37.61 213.79 40.17
  C 213.66 44.81 209.65 45.09 205.84 45.34
  Q 204.77 45.41 205.51 46.19
  Z
  M 205.17 41.55
  L 208.15 41.47
  A 0.43 0.43 0.0 0 0 208.57 41.02
  L 208.57 40.88
  A 1.78 1.69 -1.7 0 0 206.74 39.25
  L 206.46 39.25
  A 1.78 1.69 -1.7 0 0 204.73 41.00
  L 204.73 41.14
  A 0.43 0.43 0.0 0 0 205.17 41.55
  Z"
/>
<path fill="#8379e7" d="
  M 227.80 37.27
  C 231.09 33.96 237.21 34.28 239.22 38.58
  C 240.71 41.77 239.91 47.30 239.99 51.02
  Q 240.01 52.00 239.03 52.00
  L 235.00 52.00
  Q 234.01 51.99 234.01 51.00
  L 234.00 42.99
  Q 234.00 40.10 231.11 40.24
  Q 230.72 40.25 230.39 40.43
  Q 228.41 41.49 228.17 43.69
  Q 227.83 46.88 228.05 50.87
  A 1.07 1.07 0.0 0 1 226.98 52.00
  L 223.00 52.00
  Q 222.00 52.00 222.00 51.00
  L 222.00 36.06
  Q 222.00 35.48 222.57 35.37
  Q 225.60 34.77 227.12 37.20
  Q 227.41 37.66 227.80 37.27
  Z"
/>
<path fill="#8379e7" d="
  M 286.27 49.87
  C 283.67 52.66 279.79 52.64 277.18 50.04
  C 273.91 46.79 274.66 40.74 277.26 37.52
  Q 280.75 33.20 286.35 36.39
  Q 286.86 36.68 287.32 36.32
  Q 289.13 34.90 291.45 35.36
  Q 292.00 35.47 292.00 36.03
  L 291.99 51.18
  Q 291.99 51.87 291.30 51.95
  Q 288.19 52.28 286.73 49.92
  A 0.29 0.29 0.0 0 0 286.27 49.87
  Z
  M 283.43 46.77
  C 285.60 46.44 286.04 44.03 286.08 42.25
  A 2.14 2.13 -17.9 0 0 282.66 40.50
  Q 279.90 42.59 281.50 45.78
  A 1.84 1.83 -17.7 0 0 283.43 46.77
  Z"
/>
<path fill="#8379e7" d="
  M 307.79 36.68
  Q 310.53 34.36 313.91 35.29
  Q 315.11 35.61 314.57 36.73
  L 313.23 39.52
  Q 312.77 40.48 311.72 40.29
  C 308.74 39.74 307.91 42.15 307.97 44.51
  Q 308.05 48.08 307.98 51.05
  A 0.97 0.97 0.0 0 1 307.01 52.00
  L 303.00 51.99
  A 1.00 0.99 0.0 0 1 302.00 51.00
  L 302.00 36.06
  Q 302.00 35.54 302.51 35.40
  C 304.33 34.92 305.43 35.49 306.77 36.67
  Q 307.27 37.11 307.79 36.68
  Z"
/>
<rect fill="#8379e7" x="-4.87" y="-5.01" transform="translate(83.86,60.57) rotate(0.5)" width="9.74" height="10.02" rx="1.86"/>
<path fill="#8379e7" d="
  M 49.73 62.55
  L 49.75 57.39
  A 1.43 1.43 0.0 0 1 51.17 55.97
  L 57.83 55.96
  A 1.43 1.43 0.0 0 1 59.26 57.39
  L 59.27 63.82
  A 1.43 1.43 0.0 0 1 57.84 65.25
  L 51.52 65.23
  A 1.43 1.43 0.0 0 0 50.51 65.65
  L 44.57 71.53
  A 1.43 1.43 0.0 0 0 44.15 72.54
  L 44.13 77.83
  A 1.43 1.43 0.0 0 1 42.71 79.25
  L 36.17 79.26
  A 1.43 1.43 0.0 0 1 34.74 77.83
  L 34.75 71.35
  A 1.43 1.43 0.0 0 1 36.17 69.92
  L 42.28 69.88
  A 1.43 1.43 0.0 0 0 43.27 69.48
  L 49.30 63.57
  A 1.43 1.43 0.0 0 0 49.73 62.55
  Z"
/>
<rect fill="#8379e7" x="-2.49" y="-2.69" transform="translate(39.50,60.65) rotate(-0.3)" width="4.98" height="5.38" rx="1.11"/>
<path fill="#8379e7" d="
  M 71.18 62.85
  C 70.38 62.88 70.01 63.21 69.36 63.54
  Q 68.97 63.74 68.59 63.49
  Q 67.75 62.94 66.75 62.81
  Q 66.22 62.74 66.22 62.20
  L 66.21 59.02
  Q 66.21 57.99 67.23 58.00
  L 70.87 58.01
  Q 71.73 58.02 71.76 58.87
  L 71.88 62.09
  A 0.74 0.74 0.0 0 1 71.18 62.85
  Z"
/>
<path fill="#8379e7" d="
  M 96.33 63.51
  C 95.74 64.50 94.91 65.40 93.92 65.98
  C 93.08 66.48 92.81 67.37 92.11 68.05
  Q 89.83 70.31 87.37 72.64
  Q 86.07 73.87 86.12 75.61
  A 1.22 1.20 -13.6 0 1 85.43 76.73
  Q 84.01 77.41 82.16 76.78
  Q 81.52 76.56 81.50 75.89
  L 81.44 73.09
  Q 81.42 72.50 81.98 72.32
  Q 83.18 71.92 84.32 71.99
  Q 84.82 72.01 85.18 71.67
  C 86.75 70.17 89.90 66.39 91.94 65.80
  Q 92.40 65.67 92.62 65.25
  Q 93.59 63.50 95.42 62.68
  Q 95.94 62.45 95.95 61.88
  L 96.01 59.50
  A 1.26 1.25 75.8 0 1 96.63 58.45
  Q 97.93 57.68 99.80 58.14
  Q 100.33 58.27 100.56 58.76
  Q 101.39 60.49 100.58 62.23
  Q 100.33 62.77 99.76 62.92
  Q 98.54 63.26 97.30 63.06
  Q 96.66 62.96 96.33 63.51
  Z"
/>
<path fill="#8379e7" d="
  M 188.75 81.04
  L 188.75 69.00
  Q 188.75 68.00 189.75 68.00
  L 194.00 68.01
  A 1.00 0.99 0.0 0 1 195.00 69.00
  L 195.00 91.25
  A 0.75 0.75 0.0 0 1 194.25 92.00
  L 188.82 91.99
  Q 188.10 91.99 187.69 91.39
  L 179.81 79.85
  Q 179.26 79.03 179.26 80.02
  L 179.25 91.24
  Q 179.24 91.98 178.51 91.99
  L 174.00 92.00
  A 1.00 1.00 0.0 0 1 173.00 91.00
  L 173.00 68.80
  A 0.72 0.72 0.0 0 1 173.67 68.08
  C 175.25 67.97 178.76 67.46 179.81 68.98
  Q 184.09 75.17 188.19 81.21
  Q 188.75 82.04 188.75 81.04
  Z"
/>
<path fill="#8379e7" d="
  M 241.00 75.31
  L 241.01 72.01
  Q 241.02 69.40 243.48 68.53
  L 244.82 68.05
  Q 247.00 67.27 247.00 69.58
  L 247.00 91.05
  A 0.91 0.91 0.0 0 1 246.22 91.95
  Q 243.42 92.34 241.83 90.05
  Q 241.48 89.55 241.08 90.01
  Q 239.36 92.01 237.06 91.94
  C 230.51 91.77 228.55 84.84 230.94 79.69
  Q 233.94 73.25 240.33 75.76
  Q 240.99 76.02 241.00 75.31
  Z
  M 239.25 86.54
  Q 240.17 86.09 240.51 85.12
  Q 241.17 83.27 241.03 81.24
  Q 241.00 80.72 240.51 80.55
  C 234.33 78.33 234.99 88.60 239.25 86.54
  Z"
/>
<rect fill="#8379e7" x="-4.89" y="-4.94" transform="translate(69.02,74.54) rotate(-0.7)" width="9.78" height="9.88" rx="1.80"/>
<path fill="#8379e7" d="
  M 88.26 86.18
  L 88.26 91.95
  A 1.22 1.22 0.0 0 1 87.05 93.17
  L 81.43 93.20
  Q 79.28 93.21 79.09 91.06
  Q 78.81 87.94 79.17 85.44
  Q 79.39 83.85 81.00 83.86
  L 86.26 83.90
  Q 86.71 83.90 87.06 83.63
  Q 88.92 82.19 90.60 80.33
  C 91.65 79.17 93.67 78.86 93.71 76.97
  Q 93.76 74.46 93.65 71.73
  Q 93.58 69.75 95.56 69.74
  L 101.16 69.70
  Q 103.13 69.69 103.14 71.66
  L 103.15 77.58
  Q 103.16 79.31 101.43 79.35
  L 95.28 79.50
  Q 94.77 79.51 94.41 79.86
  L 88.61 85.38
  Q 88.26 85.70 88.26 86.18
  Z"
/>
<path fill="#8379e7" d="
  M 52.41 77.50
  C 50.58 79.60 47.80 82.89 45.23 84.19
  Q 42.34 85.65 42.45 88.88
  C 42.58 92.79 35.14 92.48 36.75 87.23
  A 2.15 2.15 0.0 0 1 38.92 85.71
  Q 42.19 85.87 43.76 83.46
  C 45.10 81.40 48.34 78.17 50.47 76.91
  Q 52.21 75.88 51.88 73.56
  Q 51.65 71.99 53.24 72.00
  L 55.44 72.01
  Q 56.86 72.02 56.83 73.44
  L 56.77 76.29
  A 0.61 0.60 -2.1 0 1 56.22 76.88
  L 53.12 77.14
  A 1.12 1.08 -70.9 0 0 52.41 77.50
  Z"
/>
<path fill="#8379e7" d="
  M 221.08 83.50
  A 8.58 8.58 0.0 0 1 212.50 92.08
  A 8.58 8.58 0.0 0 1 203.92 83.50
  A 8.58 8.58 0.0 0 1 212.50 74.92
  A 8.58 8.58 0.0 0 1 221.08 83.50
  Z
  M 212.5235 86.8499
  A 3.36 2.61 89.6 0 0 215.1099 83.4718
  A 3.36 2.61 89.6 0 0 212.4765 80.1301
  A 3.36 2.61 89.6 0 0 209.8901 83.5082
  A 3.36 2.61 89.6 0 0 212.5235 86.8499
  Z"
/>
<path fill="#8379e7" d="
  M 262.47 86.15
  C 263.95 87.73 267.06 86.78 268.92 86.31
  Q 269.84 86.08 270.06 87.00
  L 270.77 89.97
  A 1.03 1.02 76.0 0 1 270.03 91.21
  Q 267.47 91.89 265.03 91.92
  C 258.73 91.99 253.77 86.68 256.18 80.36
  Q 257.42 77.11 260.38 75.76
  C 263.53 74.33 270.80 75.06 270.79 79.97
  C 270.77 84.85 266.75 85.03 262.78 85.35
  Q 261.80 85.43 262.47 86.15
  Z
  M 265.37 80.03
  C 264.24 78.63 261.93 79.15 261.71 80.98
  A 0.52 0.51 -87.5 0 0 262.23 81.55
  L 264.69 81.49
  A 0.90 0.89 -20.2 0 0 265.37 80.03
  Z"
/>
<rect fill="#8379e7" x="-4.86" y="-5.03" transform="translate(54.14,88.52) rotate(0.1)" width="9.72" height="10.06" rx="1.79"/>
<rect fill="#8379e7" x="66.21" y="86.01" width="5.58" height="5.00" rx="0.95"/>
<rect fill="#8379e7" x="-2.50" y="-2.49" transform="translate(98.50,88.50) rotate(0.4)" width="5.00" height="4.98" rx="0.50"/>
</svg>
